<?xml version="1.0" encoding="utf-8"?>
<!-- Generator: Adobe Illustrator 19.1.0, SVG Export Plug-In . SVG Version: 6.00 Build 0)  -->
<svg version="1.1" id="Ebene_1" xmlns="http://www.w3.org/2000/svg" xmlns:xlink="http://www.w3.org/1999/xlink" x="0px" y="0px"
	 viewBox="0 0 960 560" style="enable-background:new 0 0 960 560;" xml:space="preserve">
<style type="text/css">
	.st0{fill:#FFFFFF;}
	.st1{fill-rule:evenodd;clip-rule:evenodd;fill:#FFFFFF;}
	.st2{fill-rule:evenodd;clip-rule:evenodd;}
</style>
<g>
	<path class="st0" d="M419.5,232c0.3,3.6,0.7,7.1,1,10.7c4.8,10.3,8.1,19.3,10.3,26c4.2,12.8,6.3,19.2,6.7,28.7
		c0.3,8.3-1.9,8.2-3.7,26.3c-0.7,6.5-1.1,11.6-1,18.3c0.2,8.9,1.3,12.3,2,20.7c0.5,6,0.9,14.6,0,25.3c4.5-9.5,9.5-15.9,13.3-20
		c2.8-3,6-5.9,9.3-11.3c0.6-0.9,2.3-3.8,5.3-11.3c1.7-4.2,3.9-10.1,6-17.3c0,7-0.7,12.7-1.3,16.7c-0.9,5.9-1.9,8.7-2.7,15.3
		c-0.3,2.3-0.5,5.5-0.7,12c-0.1,6.4-0.1,15.2,0.7,26c15.8-7.3,24.8-16.2,29.3-21.3c5.6-6.4,10.5-14.2,12-16.7
		c4.2-6.7,6.6-11.8,7.3-13.3c2.4-5,4.7-9.9,6.3-16.7c1.6-6.6,1.8-11.8,2-15.7c0.3-6.5-0.3-11.4-1.3-21.3c-0.5-4.4-0.9-7.3-1.7-13
		c-1.9-13.5-2.9-17.3-3.3-19c-1.5-5.3-1.9-5-2.3-8c-0.3-2-0.6-5.5,1.3-15.3c0.6-3.3,1.6-7.6,3-12.7c-1.9,0.7-4.2,1.8-6.7,3.5
		c-3,2-5.2,4.2-6.7,6c0.7-1.5,2-3.6,4-5.7c1.8-1.8,3.5-3,5.2-4c5-3,9-4.9,11.7-6.2c3.9-1.9,6.5-3.3,11.7-6.2
		c8-4.5,13.1-7.8,14.5-8.7c4.7-3.1,7.1-4.7,9.3-6.8c4.1-4,6.5-8,7.7-10c1.5-2.6,2.6-5.2,4.7-10.3c0.7-1.8,2.3-5.6,5-13.3
		c1.2-3.4,2.8-8.1,4.7-13.7c-3-1.1-5.5-2.2-7.5-3c-2.7-1.1-4.1-1.8-5.8-2.8c-2.4-1.5-3.5-2.7-4-3.2c-1.1-1.2-1.9-2.5-2.3-3.3
		l-23,46.3c1.1-3.4,2.2-6.8,3.3-10.2c-3.7,1.6-6.7,3.1-9,4.2c-7,3.4-10.4,5-14.7,7.7c-2.7,1.7-4.1,2.7-8,5c-2.5,1.5-4.6,2.6-6,3.3
		c-2,0.1-4.1,0.2-6.3,0.3c-2.7,0.2-5.2,0.5-7.7,0.8c-1.5-1.3-3.2-2.8-5.2-4.2c-1.8-1.3-3.5-2.4-5.2-3.3c-2.7,0.4-6.5,0.9-11,1.3
		c-6.4,0.7-9.7,1-12.8,0.8c-2.9-0.1-6-0.6-12.2-1.7c-3.1-0.5-5.7-1-7.5-1.3c-0.8,1.3-1.7,2.9-2.5,4.8c-0.8,2-1.3,3.8-1.7,5.3
		c-0.3-1.4-0.6-2.9-0.8-4.3c-0.2-1.2-0.5-2.5-0.7-3.7c-1.6-0.7-4-1.7-7-3c-6.3-2.7-6-2.5-6.7-2.8c-4.2-2-5.4-3.5-11.7-8
		c-1.8-1.3-4.4-3.1-7.7-5.2c-1.6-6.3-3.2-12.7-4.7-19.3c-1.5-6.5-2.9-12.9-4.2-19.2c-0.6-0.8-1.2-1.7-1.8-2.5c-1.3,0.8-3,1.6-5,2.3
		c-5.3,1.9-9.7,1.7-11.2,1.7c-2.2-0.1-4-0.5-5.3-0.8c0.7,5.2,1.5,10.5,2.3,15.8c1.4,9,2.8,17.9,4.3,26.7c2.1,3.8,5.4,9.4,10,15.7
		c5.6,7.7,9.9,12.1,17.2,20.2C405.3,215.3,411.8,222.7,419.5,232z"/>
	<path class="st0" d="M453,436.7c8.2-8.6,14.8-16.4,20-22.7c5-6.1,12.1-14.8,20.5-27c1.4-2,7.4-10.8,14.5-23c3.3-5.6,6-10.5,8-14.3
		c-0.2,10.4-0.2,18.9-0.2,24.8c0,4.1,0,2.4,0.3,23.2c0.1,3.7,0.1,10.6,0.2,19.5c0,3.3,0,5,0,5.8c-0.1,3.9-0.3,9.5-1.5,21
		c-1.3,12.6-1.8,12.5-2.2,19.5c-0.2,3.8-0.2,5.4-0.5,11c-0.4,6.2-0.7,8.6-1,12.5c-0.3,4.1-0.5,10.2-0.2,17.7
		c-1.3,0.1-3.3,0.2-5.8,0.2c-5.5,0-7.5-0.5-11.2-0.3c-2.1,0.1-5.2,0.4-9,1.5c-1.8-48.2-3.1-72.3-4-72.3c-0.9,0-1.3,23.7-1.3,71.2
		c-1.6-0.1-4.2-0.1-7.3,0.2c-3,0.3-4.4,0.6-7.7,1c-2,0.2-4.9,0.5-8.5,0.7C455.1,483.3,454.1,460,453,436.7z"/>
	<path class="st0" d="M477.2,510.3c-1.8,0.5-4.2,0.9-7.1,1c-2.3,0-4.3-0.2-6-0.5c-0.3,0.3-0.6,0.7-1.1,1.2c-0.6,0.5-1.3,1-2.4,1.5
		c-1.7,0.8-1.9,0.5-4,1.3c-1.8,0.6-2.8,1.3-3.1,1.5c-1.5,1-2,1.7-2.2,2.1c-0.2,0.3-0.5,0.9-0.6,1.7c-0.1,0.9,0.1,1.7,0.3,2
		c0.2,0.6,0.5,0.9,0.7,1.2c8.9-0.1,17.8-0.1,26.6-0.2c-0.1-0.7-0.1-1.8,0.1-3.1c0.2-1.2,0.4-1.2,0.6-2.3c0.5-2.7-0.6-5.1-0.9-5.8
		C477.8,511.1,477.4,510.6,477.2,510.3z"/>
	<path class="st0" d="M486.5,511c-0.1,1.6,0,2.8,0.1,3.7c0.1,0.7,0.1,1.3,0.3,1.9c0.2,0.8,0.5,1.4,0.6,1.6c0.4,0.8,1,2.2,0.7,4.8
		c5.8,0.1,11.8,0.2,17.8,0.3c0-0.7,0-1.4,0-2.1c0,0.1,0.7,0.2,1.5,0.5c0.9,0.3,1.6,0.6,2.5,0.9c0.5,0.2,1.2,0.5,2.2,0.8
		c6.3-0.1,12.5-0.1,18.7-0.2c0.3-0.2,0.7-0.6,1.1-1.1c0.7-0.7,1-1,1.2-1.4c0.2-0.3,0.8-1.4,0.4-2.3c-0.3-0.6-1.1-0.8-1.8-0.9
		c-1.6-0.3-3.2-0.8-4.9-1.1c-1.4-0.2-3.5-0.6-5.8-1.4c-0.6-0.2-1.6-0.6-3.6-1.4c-2-0.8-3-1.2-3.5-1.4c-1.5-0.8-1.8-1.3-3.3-1.8
		c-0.6-0.2-1.2-0.4-2.1-0.5c-1.1-0.1-1.9,0-2.1,0c-0.6,0.1-0.7,0.2-1.9,0.4c0,0-0.6,0.2-1.8,0.4c-1.9,0.4-4.5,0.2-7.6,0.3
		c-3.1,0.1-3.9,0.3-6.7,0.1C487.7,511.1,487,511.1,486.5,511z"/>
	<path class="st0" d="M376.6,124.8c3-0.3,5.4-0.9,7.2-1.6c0.8-2.9,2-4.9,2.9-6.2c1.5-2.2,3-3.5,4.4-4.7c2-1.8,3.9-3,5.4-3.9
		c-0.1-4.9-0.3-9.8-0.4-14.6c16.2-19,32.4-38,48.6-57l-51.1,55.5c-0.5-0.2-1.8-0.7-3.4-0.5c-2,0.3-3.3,1.5-3.6,1.9
		c-0.5-0.2-2.1-0.9-4-0.5c-1.6,0.3-2.7,1.2-3.1,1.6c-0.5,0-1.4,0.1-2.4,0.5c-0.5,0.2-1.3,0.6-2,1.4c-0.8,0.2-1.9,0.6-3,1.5
		c-2.6,2.1-2.8,5.2-2.9,5.9c-0.3,0.7-0.8,2.2-0.6,4c0.2,2.1,1,3.6,1.5,4.3c-0.3,4.1-0.5,8.2-0.8,12.3
		C371.1,124.8,373.6,125,376.6,124.8z"/>
	<path class="st0" d="M570.5,133.6c1.1,1.4,2.5,2.3,4.5,3.3c1.8,0.8,4.3,1.9,7.6,2.7c0.5-1.2,1.3-2.8,2.4-4.8c1.4-2.6,2.1-4,2.9-4.6
		c1.9-1.7,2.9-0.7,6.6-2.8c2.3-1.3,3.7-2.6,4.1-3c1.4-1.3,0.8-1.3,2.6-3.1c0.5-0.6,1.2-1.2,1.3-2.1c0.1-0.4,0-0.4,0-1.3
		c0.1-1.3,0.3-1.7,0-2c-0.1-0.1-0.4-0.2-1,0c0.4-0.4,1.1-1.3,1.5-2.6c0.3-0.9,0.3-1.7,0.3-2.3c0-0.4-0.1-1.3-0.8-2.1
		c-0.2-0.3-0.5-0.6-0.8-0.8c0.5-0.5,0.8-1.1,1-1.5c0.3-0.5,1.1-2.2,0.8-4.3c-0.1-0.6-0.2-1.2-0.6-1.4c-0.7-0.3-1.6,0.5-1.6,0.5
		c-0.2,0.6-0.5,1.6-1.1,2.6c-0.5,0.8-0.8,1-1.6,2c-1.2,1.5-1.2,1.9-1.9,2.6c-0.6,0.7-1.7,1.6-3.5,2.3c0.8-0.8,1.9-1.9,3-3.4
		c0.9-1.2,1.7-2.2,2.5-3.8c0.3-0.6,0.7-1.9,1.6-4.6c0.5-1.7,0.8-2.6,0.4-3c-0.3-0.3-0.8-0.3-1.3-0.3c-0.2,0-1,0.1-1.8,0.6
		c-0.6,0.4-0.8,1.2-1.4,2.6c-0.5,1.4-0.9,2.4-1,2.8c-0.8,0.7-2.1,1.8-3.4,3.4c-1.8,2.1-1.7,2.6-3,3.9c-1.5,1.5-2.9,2.2-5.9,3.5
		c-3.5,1.6-4.7,1.5-5.1,1.5c-1.6-0.2-2.8-0.9-3.5-1.5c-1.5-1.6-2.1-3-2.4-4c-0.2-0.5-0.4-1.5-1.1-2.4c-0.7-0.8-1.4-1-1.6-1
		c-0.1,0-1.4-0.3-1.8,0.5c-0.2,0.4-0.1,0.8,0,1c0,0.2,0,0.6,0,1c0.1,0.9,0.4,1.5,0.6,2.3c0.4,1.1,0.2,1.2,0.5,2.3
		c0.4,1.5,0.9,1.7,1.6,3.3c0.2,0.4,0.2,0.4,1,3.3c1,3.4,1.1,3.6,1.1,4.1c0.2,2.1-0.2,3.7-0.3,4c-0.3,1.1-0.8,1.9-1,2.4
		c-0.6,1.1-1.2,1.8-1.8,2.4C569.6,132.3,570,133,570.5,133.6z"/>
	<path class="st0" d="M466.7,349.2c-1.2,2.5-2.6,5.3-4.3,8.3c-1.5,2.6-3.6,6.2-7,10.5c-2.8,3.5-3.7,4-6,7.3c-1.9,2.7-3.2,5-4,6.7
		c3.6,18.7,7.1,37.3,10.7,56c9.7-7.8,22.8-19.8,35.3-36.7c17.3-23.2,25.8-45.1,25.3-45.3c-0.4-0.2-6.1,14.7-20,28.7
		c-10.8,10.8-22.6,17-31.3,20.7c-2.1-8.6-4-20.8-2.7-35.3C463.4,362,464.9,355,466.7,349.2z"/>
	<path class="st1" d="M651.9,375.3c0.2-2.7,1.2-5.9,2.9-7c-5.7-7.5-9.8-13.2-15.5-20.6l1.2-0.8l16.1,21c1.8,0.9,3.3,3.9,2.7,7.8
		c-0.2,3.2-2.2,7.4-4.5,7.2C652.4,382.5,651.5,378.6,651.9,375.3z"/>
	<path class="st1" d="M578.8,365c3.4-0.1,5.7-0.9,8.3-2.7c8.8,7.9,12.3,11.1,20.6,18.7c-4.6,1-8.7,3.2-12,6.3L575.9,369
		c-1.4-2.6-4.8-4.5-9.6-4.1c-4.1,0.3-8.5,2.6-8.3,5.5c0.2,2.8,5.6,3.6,9.3,3.3c3.4-0.1,5.7-0.9,8.3-2.7c8.2,7.4,11.8,10.6,19,17.2
		c-2.8,2.9-5,6.5-6.4,10.5l-21.7-20.1c-1.4-2.6-4.8-4.5-9.6-4.1c-4.1,0.3-8.5,2.6-8.3,5.5c0.2,2.8,5.6,3.6,9.3,3.3
		c3.4-0.1,5.7-0.9,8.3-2.7c9.1,8.2,12.5,11.3,21.5,19.5v0c2,1.9,4.3,4.1,6.2,5.7c2.9-13,12-20.3,20-21.5c-1.7-1.4-2.9-2.4-4.6-3.8h0
		l-22.1-20.4c-1.4-2.6-4.8-4.5-9.6-4.1c-4.1,0.3-8.5,2.6-8.3,5.5C569.6,364.5,575,365.3,578.8,365z"/>
	<path class="st1" d="M662,304.2c-0.4-1.9-0.4-4.4,0.6-7.6c-7-4.6-15-9.6-22-14.2c3.4-2.7,7.1-9.1,7.2-15.1c7.6,5,16.3,10.7,24.2,16
		c2.4,0.5,4.6,2.9,5.6,6.5c0.7,2.1,1,6.8-1.2,7.3c-1.8,0.2-4.1-2.4-5.2-5.4c-0.9-2.7-1.2-5.6-0.3-7.5c-4.8-3.2-12.5-7.8-17.3-11
		c-0.5,3.7-3,9.5-7.3,11.6l17.5,11.3c1.8,0.4,3.8,3.8,4.5,6.7c0.6,2.2,0.8,7.5-1.7,7.8C664.1,310.5,662.5,306.4,662,304.2z"/>
	<path class="st1" d="M650.8,217.7c1-1.9,2.9-3.9,4.4-5c-2.2-7.3-3.3-11.2-5-16.7c-2.3,1.9-5.5,2.9-8.8,3.2l5.5,17.5
		c0.9,1.7,0.7,5.6-0.7,7.8c-1.5,2.6-3.8,5-5.7,3.8c-1.4-1.3-1-4.4,0.1-6.8c0.9-2.2,2.9-4.4,4.8-5.2c-2.2-7.5-3.4-11.3-5.1-17
		c-3.5,0.2-7-0.4-9.5-1.5l6.4,20.7c1.4,2.7,1.1,6-0.4,8.4c-1.5,2.6-4.2,4.4-6,2.9c-1.5-1.5-0.8-4.1,0.4-6.5c1.2-2.2,2.9-3.8,4.7-5
		c-2.6-8.9-4-13.2-6.3-21.1l-0.2-0.1c-0.6-2.3-1-3.7-1.6-5.7c7.5,3,16.3,0.9,21.4-2.7c0.5,1.8,1.5,4.8,2,6.5l-0.2,0.2l5.5,18
		c0.8,1.4,1.1,5.3-0.7,8.7c-1.6,2.8-4.4,4.9-5.8,3.6C648.4,224.1,649.4,220.4,650.8,217.7z"/>
	<path class="st1" d="M430.9,419.2c-3.3,2.9-8.3,5.5-11.5,4.6c-2,15.5-3,26.3-4.9,41.8l-2.1-0.3l4.6-43.2c-1.1-3.2,0.6-8.5,5.7-12.2
		c3.8-3.5,10.9-6,13.3-3C438.5,410.1,435.1,415.8,430.9,419.2z"/>
	<path class="st1" d="M610.9,255.3c0.5-2.1,2.1-4.7,3.5-5.3c-3.4-6.5-6.8-13.2-10.2-19.7c5.6,5.4,7.7-3.1,13.2,5.1
		c-3.4-2.2-5.9,3.4-10.5-1.4l8.5,16.3c1.3,0.9,2,3.5,1.1,6.3c-0.5,2.4-2.6,5.4-4.4,4.9C610.4,260.9,610.1,257.7,610.9,255.3z"/>
	<path class="st1" d="M584.7,319.4c0.9-2.5,3.7-5,6.4-5.4c-2.1-8.9-4.8-19.4-6.9-28.2c4.8,0.8,14.1-5.3,15.4-12.7
		c0.1,0.4,0.2,0.7,0.2,1.1c0,0,0,0,0,0l7.1,30.4c1.1,2.5,1.3,5.5,0.2,8.4c-1.1,2.7-3.6,6.2-6.2,4.7c-2.4-1.8-1.3-6,0-8.7
		c1.3-2.3,2.6-3.7,4.7-5.1c-1.4-6.2-3.2-13.6-4.6-19.8c-4,7.1-10.3,8.2-14.3,7.3l5.6,23.2c0.8,2.5,0.4,6.4-0.7,8.6
		c-1,2.6-4.3,6.1-6.3,4.7C582.9,325.9,583.6,322.1,584.7,319.4z"/>
	<path class="st1" d="M357.9,375c11.4-0.8,23.8-8.7,31.2-20.8c-0.4-2.5-0.7-4.9-1.1-7.3c-8.8,16.6-22.9,22.1-31,22.3L357.9,375
		L357.9,375z M389.5,356.7c-6.7,12.2-21.2,19.7-31.3,20.3l5.9,39.2c1.8,4,1.4,11-1.1,16c-2.9,5.8-7.9,8.4-10.5,6.3
		c-3.1-2.4-2.8-7.5,0-14c2.4-5.5,6.7-9.3,9.4-8.9c-2.7-18-6.3-38.1-9-55.9c14.5-4.9,30.7-21.9,34.3-36.7c3.2,21.3,6.5,42.7,9.7,64
		c1.9,2.7,1,10.7-1.5,16.5c-2.8,6.4-7.6,8.3-10.2,6.3c-3.1-2.1-2.7-9.2-0.5-14c2.4-5.5,6.8-10.4,9.4-10
		C392.7,376.4,391,366.4,389.5,356.7z"/>
	<path class="st2" d="M423.6,270c2.1-1.2,4.5-0.6,5.7,1.5c1.6,2.6,1,6.6-1.6,8.5C426.1,276.6,425.1,273.5,423.6,270z"/>
	<path class="st1" d="M605.4,158.7c0.1-1.9,0.9-4.2,2.1-5c-4.1-5.4-7-9.4-11.1-14.7l0.9-0.6l11.5,15c1.3,0.6,2.4,2.8,1.9,5.5
		c-0.1,2.3-1.6,5.3-3.2,5.2C605.8,163.8,605,161,605.4,158.7z"/>
	<path class="st1" d="M544.8,120.6c0.3-1,1-2.3,2.5-3.6c-2.2-4.3-4.8-9-6.9-13.2c2.5-0.4,6.1-2.5,7.8-5.5c2.4,4.6,5.1,9.9,7.5,14.8
		c1.1,0.9,1.5,2.7,1,4.8c-0.2,1.2-1.4,3.7-2.7,3.3c-1-0.4-1.3-2.3-1-4.1c0.3-1.6,1-3.1,2-3.8c-1.5-3-4-7.4-5.5-10.4
		c-1.3,1.7-4.2,3.9-6.9,3.7l5.5,10.5c0.8,0.7,0.8,2.9,0.3,4.6c-0.3,1.3-1.7,4-3,3.4C544.1,124.3,544.4,121.8,544.8,120.6z"/>
	<path class="st1" d="M485.8,87.8c0.6-1.1,1.6-2.2,2.5-2.8c-1.2-4.2-1.9-6.4-2.9-9.5c-1.3,1.1-3.1,1.6-5,1.8l3.1,10
		c0.5,1,0.4,3.2-0.4,4.4c-0.9,1.5-2.2,2.9-3.3,2.2c-0.8-0.7-0.6-2.5,0.1-3.9c0.5-1.3,1.7-2.5,2.8-3c-1.3-4.3-1.9-6.5-2.9-9.7
		c-2,0.1-4-0.2-5.5-0.9l3.6,11.9c0.8,1.6,0.6,3.4-0.2,4.8c-0.9,1.5-2.4,2.5-3.4,1.7c-0.9-0.9-0.4-2.4,0.2-3.7
		c0.7-1.3,1.7-2.2,2.7-2.9c-1.5-5.1-2.3-7.5-3.6-12.1l-0.1-0.1c-0.4-1.3-0.6-2.1-0.9-3.2c4.3,1.7,9.3,0.5,12.3-1.6
		c0.3,1,0.9,2.7,1.1,3.7l-0.1,0.1l3.2,10.3c0.5,0.8,0.6,3-0.4,5c-0.9,1.6-2.5,2.8-3.3,2.1C484.4,91.5,485,89.4,485.8,87.8z"/>
	<path class="st1" d="M460.1,57c0.3-1.2,1.2-2.7,2-3c-2-3.7-3.9-7.6-5.8-11.3c3.2,3.1,4.4-1.8,7.6,2.9c-1.9-1.3-3.4,2-6-0.8l4.9,9.3
		c0.7,0.5,1.2,2,0.6,3.6c-0.3,1.4-1.5,3.1-2.5,2.8C459.8,60.3,459.7,58.5,460.1,57z"/>
	<path class="st1" d="M593.9,200.3c0.5-1.3,1.3-3.2,3.4-4.8c-3.1-5.8-6.8-12.3-9.8-18.1c3.5-0.2,8.7-2.7,11.1-6.4
		c3.4,6.3,7.2,13.6,10.7,20.2c1.3,1.3,1.9,3.7,1.2,6.4c-0.3,1.6-1.8,4.7-3.6,4c-1.4-0.6-1.8-3.4-1.3-5.7c0.3-2.1,1.3-4.1,2.7-4.9
		c-2.1-4.1-5.4-10.2-7.5-14.2c-1.8,2.1-7.2,5.2-10.3,4.4l7.9,14.8c1,1.3,1.3,3.6,0.6,5.7c-0.5,1.6-2.4,5.1-4.3,4.1
		C592.8,204.8,593.4,201.8,593.9,200.3z"/>
	<path class="st1" d="M507,81.5c1.2-0.9,3.4-1.2,4.8-0.5c1.9-4.9,3.9-10.7,5.8-15.6c2,1.9,8.4,2,11.4-1c-0.1,0.2-0.1,0.4-0.2,0.6
		c0,0,0,0,0,0l-6.4,16.7c-0.3,1.5-1.1,3-2.6,4.1c-1.4,0.9-3.7,1.8-4.5,0.2c-0.6-1.6,1.3-3.2,2.8-4.1c1.4-0.7,2.4-0.9,3.8-0.9
		c1.3-3.4,2.8-7.5,4.2-10.9c-4.2,2.1-7.5,0.6-9.1-1.1l-4.8,12.7c-0.4,1.4-1.9,3.2-3.1,3.9c-1.3,0.9-4,1.5-4.5,0.2
		C504.1,84,505.6,82.4,507,81.5z"/>
	<path class="st2" d="M485.7,67.8c1.5-0.9,3.2-0.5,4.1,1.1c1.2,1.9,0.7,4.7-1.1,6.1C487.5,72.5,486.8,70.3,485.7,67.8z"/>
	<g>
		<path class="st0" d="M309.9,317c1.6-8.5,9-14.5,17.2-13.9l3.9-14.3c-13.5,5-24.5,2.1-32.3,17.6c-6.5,16.3,3.8,29.9,17.2,34
			c0.4,0.1,0.6,0.2,1,0.3l8-29.4c-8.8-1.7-14.4,7-12.9,14.7C310.7,324.6,309.4,321.1,309.9,317L309.9,317z M296.5,357.2
			c3.1,4.2-5,6.4-4.7,12.6c0.4,8,12.3,11.2,17.3-0.1l7-24.7c-0.5-0.1-0.6-0.2-1.2-0.3c-18.4-5.4-27.5-24-20.4-40.8
			c8.3-20,28.7-23.8,41-27.8c0.2-0.8,0.5-1.4,0.7-2.1c5.6-18.5,18.1-31.1,32.9-38.9c0.5-0.3,0.9-0.6,1.4-0.9
			c3.2,18.7-3,48.9-35.7,53.5l-4.3,15.5c12.6,2.1,19,16.4,14.5,27.4c-3.3,9.9-15.2,16.9-26.1,15c-2.3,8-4.5,16.1-6.8,24.1
			c-1.7,6.2-7,11-13.4,11.2c-4.4,0.2-8.9-1.8-11.7-5.4c-3.5-4.4-3.8-11.1-1.3-16.1C287,356.8,293.5,354.2,296.5,357.2L296.5,357.2z
			 M339.2,276c13-5.2,21-11.2,23.7-30.1C350.3,253.5,343.5,261.2,339.2,276L339.2,276z M328,311.8c17.9,5,8.7,30-8.1,29.5
			C322.6,331,325.7,322.1,328,311.8z"/>
		<path class="st2" d="M328,311.8c7.1,1.6,10.7,7.4,9.6,14.3c-1.2,8.5-8.6,15.7-17.7,15.2C322.6,331.2,325.3,321.9,328,311.8z"/>
	</g>
	<path class="st1" d="M544.2,462c0.8-3.2,3.2-7.4,5.5-8.2c-5.3-10.2-10.6-20.6-15.9-30.7c8.7,8.5,12-4.9,20.6,8
		c-5.3-3.4-9.2,5.4-16.3-2.2l13.3,25.4c2,1.4,3.2,5.4,1.7,9.9c-0.8,3.7-4.1,8.4-6.8,7.6C543.4,470.8,543,465.9,544.2,462z"/>
	<path class="st0" d="M476.8,185c-0.4-1.5-0.5-2-0.5-2.1c0,0,0-0.1,0-0.1c0,0,0.1,0.4-0.1-0.7c-0.4-2.5-0.4-3.2-0.4-3.9
		c0-1,0.1-1.8,0.2-2.4c0.1-0.9,0.3-1.8,0.7-2.9c0.4-1.1,0.7-1.9,1.4-2.6c0.4-0.4,0.8-0.6,1.7-1.1c0.2-0.1,0.9-0.5,2.1-1
		c1.4-0.6,1.5-0.5,2.6-0.9c0.9-0.4,1.6-0.7,2.3-1.4c0.4-0.3,0.9-0.8,1.2-1.6c0.3-0.7,0.2-1.4,0.2-1.7c0-0.6-0.2-1.1-0.4-1.7
		c-0.1-0.4-0.3-0.8-0.6-1.4c-0.4-0.6-0.6-0.6-0.8-1.1c-0.3-0.6-0.4-1.2-0.4-1.6c-0.1-0.5,0-0.9,0-1.9c0-0.1,0-0.6-0.1-1.1
		c-0.1-0.4-0.2-0.5-0.3-0.5c-0.3-0.3-0.7-0.3-0.9-0.3c0.2-0.3,0.3-0.7,0.5-1.2c0.1-0.3,0.2-0.8,0.2-1.5c0-0.4-0.1-0.8-0.3-1.3
		c-0.3-0.6-0.9-1-1.2-1.2c-0.4-0.3-0.6-0.3-0.9-0.7c-0.2-0.2-0.4-0.4-0.4-0.8c0-0.2,0.2-0.5,0.5-0.9c0.3-0.4,0.4-0.5,0.7-0.8
		c0.3-0.4,0.5-0.6,0.6-0.9c0.3-0.8,0-1.7,0-1.7c-0.2-0.4-0.6-0.7-1.3-1.3c-0.2-0.1-0.3-0.2-0.4-0.3c-0.6-0.4-1.1-0.8-1.4-1
		c-1.1-0.7-1.2-0.6-1.9-1.1c-0.5-0.4-1-0.7-1.3-1.1c-0.1-0.3-0.1-0.6-0.3-0.9c-0.1-0.3-0.3-0.6-0.4-0.9c0,0-0.4-0.6-0.3-0.8
		c0-0.1,0-0.2,0-0.2c0,0,0,0,0,0l0,0c0-0.1,0.1-0.2,0.1-0.4c0.1-0.3,0-0.4,0.1-1c0.1-0.9,0.1-1.3,0.1-1.5c-0.1-0.3-0.3-0.5-0.7-0.8
		c-0.5-0.5-0.7-0.4-1.2-0.8c-0.3-0.3-0.3-0.3-0.9-1.3c-0.2-0.3-0.6-0.8-1.1-1.4c-0.5-0.5-0.6-0.6-1-1.1c-0.4-0.5-0.6-0.7-1.3-1.7
		c-0.9-1.1-1.3-1.7-1.5-2c-0.8-0.8-1.5-1.3-1.9-1.6c-0.6-0.4-1-0.6-1.8-1c-0.7-0.3-1.3-0.7-2.1-1c-0.7-0.3-1.7-0.6-3-0.8
		c0.2-0.2,0.5-0.6,1-0.9c0.3-0.2,0.6-0.3,0.9-0.3c0-0.7,0.1-1.3,0.3-1.6c0.2-0.4,0.4-0.5,0.6-1c0.1-0.2,0.3-0.7,0.1-1.3
		c-0.1-0.5-0.4-0.8-1.1-1.5c-0.6-0.6-0.9-0.8-1.4-1c-0.6-0.2-1.1-0.2-1.4-0.2c0,0.5-0.1,0.7-0.2,0.7c-0.4,0.2-1-0.6-2.2-1.2
		c-0.8-0.4-1.4-0.5-1.9-0.5c-0.1,0.1-0.3,0.5-0.7,0.7c-0.8,0.3-1.6-0.3-1.6-0.3c-0.1,0.2-0.3,0.6-0.6,1c-0.4,0.4-0.9,0.6-1.1,0.7
		c-0.3,0-0.8,0-1.4,0.2c-0.6,0.2-0.8,0.4-1.3,0.5c-0.3,0.1-0.8,0.1-1.5-0.2c-0.3,0.2-0.6,0.4-1.1,0.5c-0.5,0.2-0.9,0.2-1.3,0.2
		c-0.4,0-1,0.1-1.7,0c0.2,0.3,0.3,0.5,0.2,0.7c-0.1,0.4-0.7,0.4-1.6,0.8c-0.8,0.4-0.8,0.6-1.4,0.7c-0.7,0.2-1.3,0-1.7-0.2
		c-0.3,0.2-0.7,0.5-1.2,0.7c-0.9,0.4-1.7,0.5-2.2,0.6c-0.1,0.2-0.2,0.4-0.3,0.6c-0.2-0.1-0.3-0.2-0.5-0.3c-0.9,0.1-1.5,0.3-1.8,0.6
		c-0.7,0.4-1.2,1-1.6,0.9c-0.1-0.1-0.2-0.2-0.2-0.3c-1,0.7-1.7,1.4-2.2,1.9c-0.6,0.5-0.9,0.8-1.2,1.2c-1,1.2-1.4,2.1-1.8,2.1
		c-0.1,0-0.2-0.1-0.4-0.3c-0.3,0.3-1.6,1.8-2.5,3.2c-0.2,0.3-0.5,0.8-0.7,1.4c-0.2,0.6-0.3,1-0.3,1.1c0,0.1-0.1,0.5-0.1,1.1
		c0,0.4,0,0.9,0.2,1.6c-0.4,0-1.1,0.2-1.8,0.6c-0.7,0.4-1.1,0.9-1.4,1.2c0.2,0,0.7-0.1,0.8,0.1c0.1,0.2-0.2,0.6-0.8,1.1
		c0.2,0.2,0.2,0.4,0.2,0.5c0,0.4-0.3,0.9-0.9,1.1c0.3,0.1,0.5,0.2,0.6,0.4c0.1,0.4-0.5,0.8-0.5,0.9c0.1,0.1,0.3-0.1,0.4,0
		c0.1,0.1-0.1,0.5-0.9,1.7c0.2-0.1,0.5-0.2,0.7-0.3c-0.3,0.6-0.4,1.1-0.4,1.5c-0.1,0.6-0.1,0.9-0.2,1.5c-0.1,0.5-0.4,0.8-0.5,1.1
		c0.1,0.1,0.3,0.3,0.4,0.6c0.3,0.7,0.1,1,0.3,2.1c0.1,0.5,0.2,0.7,0.3,1.4c0.2,1,0.1,1,0.2,1.6c0.2,0.7,0.4,0.9,0.9,1.9
		c0.3,0.7,0.2,0.6,0.7,1.9c0.5,1.4,0.8,2.1,1.3,2.7c0.4,0.6,0.5,0.5,0.9,1.1c0.5,0.7,0.7,1.5,0.9,1.9c0.1-0.3,0.2-0.6,0.3-0.8
		c0.7,1.3,1.4,2.6,2.1,4c0.1-0.2,0.1-0.4,0.2-0.6c0.5,0.8,1.2,1.8,2.1,3c1.2,1.7,1.8,2.6,2.8,3.5c1.2,1.2,2.3,2,3.1,2.6
		c1,0.7,1.9,1.2,2.6,1.6c1.7,1.4,2.7,2.5,3.2,3.3c0.3,0.4,0.9,1.2,1.9,2.3c0.4,0.4,0.5,0.4,0.7,0.7c0.9,1.1,0.9,1.5,1.6,1.9
		c0.5,0.3,0.7,0.1,1.1,0.5c0.4,0.4,0.5,0.9,0.5,1.4c0,0.2,0.1,0.8,0,1.7c-0.1,0.5-0.2,1.2-0.5,2c0.8,0.4,2,1,3.5,1.3
		c1.5,0.3,2.5,0.3,3.8,0.3c2.8,0.1,3.7,0.5,6,0.7c3.3,0.2,5.6,0,9.3-0.3C469.4,186.3,472.8,185.8,476.8,185z"/>
</g>
</svg>
